<svg width="231" height="32" viewBox="0 0 231 32" fill="none" xmlns="http://www.w3.org/2000/svg">
<g clip-path="url(#clip0_3_4)">
<path d="M39.7911 23.833C35.4493 23.833 31.9186 20.2736 31.9186 15.8963C31.9186 15.4644 31.9643 15.0497 32.0272 14.6407C32.4328 12.9935 33.1869 11.4327 34.2895 10.2347C35.7121 8.82937 37.6488 7.96544 39.7911 7.96544C42.6934 7.96544 45.2299 9.55508 46.5953 11.9165H55.062C53.3024 5.06839 47.1267 0 39.7911 0C39.6712 0 39.5512 0.00575954 39.4255 0.0115191V0C34.7351 0 30.6275 2.09647 27.7995 5.59251C26.0399 7.67171 24.8002 10.2117 24.2917 13.005C24.1203 13.7768 23.9832 14.5716 23.8975 15.3895C23.5148 18.9489 22.1436 21.3449 19.7042 22.7214C19.5042 22.8366 19.3043 22.9345 19.1043 23.0266C17.7903 23.522 16.6249 23.833 15.7736 23.833C14.8824 23.833 14.0312 23.6775 13.2371 23.401C10.2149 22.2779 7.97537 19.2369 7.91252 15.7466C7.99251 11.4384 11.4832 7.95968 15.7736 7.95968C19.0643 7.95968 21.8923 10.0101 23.0634 12.9129C23.7433 9.7221 25.103 6.93448 26.9769 4.72282C24.1146 1.8085 20.1498 0 15.7679 0C7.17555 0 0.165677 6.96904 0.00571301 15.5968H0C0 15.6487 0.00571301 15.7005 0.00571301 15.7523C0.00571301 15.8042 0 15.8503 0 15.8963C0 22.1685 3.62205 27.5997 8.8666 30.1857C10.9976 31.257 13.3513 31.8272 15.7622 31.833C15.7679 31.833 15.7679 31.833 15.7736 31.833C15.9507 31.833 16.522 31.8215 17.339 31.7178C20.8468 31.3664 24.0118 29.8517 26.4627 27.5652C26.4798 27.5479 26.5027 27.5306 26.5198 27.5133C26.6741 27.3693 26.8283 27.2196 26.9769 27.0698C27.0625 26.9834 27.154 26.8913 27.2397 26.8049C27.2854 26.7531 27.3311 26.7012 27.3768 26.6494C27.5139 26.4996 27.651 26.3499 27.7881 26.1944C30.6846 29.6213 34.9922 31.8042 39.7969 31.8042C47.1267 31.8042 53.3081 26.7358 55.0677 19.8877H46.5953C45.2299 22.2433 42.6934 23.833 39.7911 23.833Z" fill="#0B5394"/>
<path d="M89.2658 16.4608C89.2658 22.18 84.8782 26.8625 78.9082 26.8625C73.2351 26.8625 68.7333 22.2952 68.7333 16.4953C68.7333 10.5112 73.5265 6.09359 78.8682 6.09359C84.5869 6.09359 89.2658 10.6264 89.2658 16.4608ZM73.675 16.4608C73.675 19.8071 75.7774 22.18 78.9424 22.18C81.9646 22.18 84.3241 19.951 84.3241 16.4953C84.3241 13.149 82.1474 10.7761 78.9424 10.7761C75.886 10.7761 73.675 13.1893 73.675 16.4608Z" fill="#0B5394"/>
<path d="M93.8191 6.61195H98.7209V16.9042C98.7209 20.4348 99.8292 22.2894 102.406 22.2894C105.022 22.2894 106.091 20.4694 106.091 17.1231V6.61195H110.992V15.7178C110.992 19.3578 110.77 22.036 108.707 24.3398C107.159 26.085 105.131 26.8279 102.406 26.8279C97.6868 26.8279 94.7789 24.4147 94.0019 19.8071C93.7448 18.2117 93.8191 17.2786 93.8191 15.6487V6.61195Z" fill="#0B5394"/>
<path d="M176.292 16.4608C176.292 22.18 171.905 26.8625 165.934 26.8625C160.261 26.8625 155.76 22.2952 155.76 16.4953C155.76 10.5112 160.553 6.09359 165.894 6.09359C171.608 6.09359 176.292 10.6264 176.292 16.4608ZM160.701 16.4608C160.701 19.8071 162.804 22.18 165.969 22.18C168.991 22.18 171.35 19.951 171.35 16.4953C171.35 13.149 169.174 10.7761 165.969 10.7761C162.912 10.7761 160.701 13.1893 160.701 16.4608Z" fill="#0B5394"/>
<path d="M229.412 22.514C227.309 25.5263 224.544 26.8625 220.42 26.8625C214.192 26.8625 210.176 22.2549 210.176 16.4608C210.176 11.0756 214.044 6.09359 220.351 6.09359C226.544 6.09359 230.743 10.5515 230.743 16.7948C230.743 17.2383 230.709 17.4629 230.709 17.9122H214.935C215.415 20.8495 217.626 22.4795 220.425 22.4795C222.528 22.4795 223.927 21.8863 225.293 20.55L229.412 22.514ZM225.801 14.0072C225.138 11.7034 223.036 10.2923 220.42 10.2923C217.986 10.2923 216.106 11.5191 215.146 14.0072H225.801Z" fill="#0B5394"/>
<path d="M124.692 22.6119C123.807 22.6119 123.104 22.347 122.596 21.8171C122.081 21.2873 121.83 20.5961 121.83 19.7437V10.9719H128.291V7.1879H121.83V2.14255H121.424L116.894 7.14183L116.883 20.0662C116.883 22.059 117.477 23.6429 118.671 24.8063C119.859 25.9755 121.522 26.5572 123.647 26.5572C125.224 26.5572 126.903 26.1598 128.691 25.3592V21.3506C127.183 22.1915 125.852 22.6119 124.692 22.6119Z" fill="#0B5394"/>
<path d="M206.457 18.0504C206.457 15.568 206.497 12.7171 205.611 10.4766C204.892 8.65659 203.56 7.25126 201.098 6.79049C199.241 6.43916 195.636 6.38733 193.254 7.52772C193.163 7.57379 193.054 7.59107 192.974 7.64291C192.351 7.25126 191.614 6.95752 190.723 6.79049C188.867 6.43916 186.958 6.72714 185.102 7.06695C185.027 7.07847 184.953 7.10151 184.885 7.13031H179.988V25.9813H184.89V10.6321C185.816 10.4708 186.758 10.3096 187.695 10.3902C188.638 10.4708 189.592 10.8222 190.215 11.5364C191.095 12.55 191.14 14.0245 191.14 15.3722C191.14 18.9143 191.135 22.4507 191.135 25.9928C192.78 26.0331 194.425 26.0331 196.071 25.9928C196.099 25.9928 196.076 18.7127 196.076 18.0504C196.076 15.6602 196.105 12.9244 195.317 10.73C196.196 10.563 197.213 10.3153 198.07 10.3902C199.013 10.4708 199.967 10.8222 200.59 11.5364C201.469 12.55 201.515 14.0245 201.515 15.3722C201.515 18.9143 201.509 22.4507 201.509 25.9928C203.155 26.0331 204.8 26.0331 206.445 25.9928C206.474 25.9928 206.457 18.7127 206.457 18.0504Z" fill="#0B5394"/>
<path d="M148.51 13.7307H153.572C152.286 9.40533 148.333 6.41613 143.825 6.41613C138.215 6.41613 133.65 11.018 133.65 16.6739C133.65 22.3297 138.215 26.9316 143.825 26.9316C148.333 26.9316 152.286 23.9424 153.572 19.617H148.51C147.504 21.2412 145.722 22.2433 143.825 22.2433C140.78 22.2433 138.306 19.7437 138.306 16.6796C138.306 13.6155 140.786 11.1159 143.825 11.1159C145.728 11.1044 147.504 12.1066 148.51 13.7307Z" fill="#0B5394"/>
</g>
<defs>
<clipPath id="clip0_3_4">
<rect width="231" height="32" fill="white"/>
</clipPath>
</defs>
</svg>
