<svg width="16" height="20" viewBox="0 0 16 20" fill="none" xmlns="http://www.w3.org/2000/svg">
<path d="M1.70358 0.847526C0.329357 1.73878 0.0593958 4.52467 0.578224 6.79526C0.982286 8.56346 1.84135 10.9354 3.28994 13.1689C4.65268 15.2701 6.55389 17.1541 8.00358 18.2442C9.86518 19.6439 12.519 20.5336 13.8932 19.6423C14.5881 19.1917 15.6205 17.9604 15.6676 17.7394C15.6676 17.7394 15.0622 16.806 14.9293 16.6012L12.8992 13.4709C12.7483 13.2383 11.8022 13.4509 11.3216 13.7231C10.6733 14.0905 10.0762 15.0761 10.0762 15.0761C9.63166 15.3329 9.25932 15.077 8.48135 14.719C7.52522 14.279 6.45022 12.9122 5.59463 11.6742C4.81319 10.3881 4.00354 8.84909 3.99182 7.79667C3.98217 6.94034 3.90037 6.49604 4.31619 6.19487C4.31619 6.19487 5.45963 6.05167 6.05943 5.60956C6.50401 5.28175 7.08397 4.50464 6.93311 4.27198L4.90295 1.14175C4.7701 0.936902 4.16471 0.00346406 4.16471 0.00346406C3.94373 -0.0436063 2.39846 0.396862 1.70358 0.847526Z" fill="#233B68"/>
</svg>
