<svg width="37" height="28" viewBox="0 0 37 28" fill="none" xmlns="http://www.w3.org/2000/svg">
<g clip-path="url(#clip0_447_2527)">
<path d="M15.3109 25.1C13.9809 26.55 12.5009 27.38 10.8809 27.59C9.25091 27.8 7.67091 27.53 6.13091 26.78C4.59091 26.03 3.28091 24.93 2.19091 23.48C1.10091 21.91 0.410915 20.09 0.110915 18C-0.189085 15.92 0.140915 13.67 1.11091 11.26C2.13091 8.79 3.96091 6.51 6.58091 4.43C9.20091 2.34 12.3609 0.91 16.0409 0.12C16.7009 0 17.1509 -0.03 17.3909 0.03C17.6309 0.09 17.7809 0.18 17.8409 0.3C17.8409 0.84 17.6609 1.24 17.3009 1.47C15.7909 2.32 14.5209 3.37 13.5009 4.64C12.4709 5.91 11.8409 7.13 11.6009 8.31C11.3609 9.48 11.6309 10.35 12.4209 10.89C12.6609 11.07 13.2309 11.57 14.1409 12.39C15.0409 13.2 15.8909 14.26 16.6709 15.56C17.4509 16.86 17.8309 18.32 17.8009 19.95C17.7709 21.58 16.9409 23.3 15.3109 25.11V25.1ZM34.3109 25.1C32.9809 26.55 31.5009 27.38 29.8809 27.59C28.2509 27.8 26.6709 27.53 25.1309 26.78C23.5909 26.03 22.2809 24.93 21.1909 23.48C20.1109 21.91 19.4109 20.09 19.1109 18C18.8109 15.92 19.1409 13.67 20.1109 11.26C21.1309 8.79 22.9609 6.51 25.5809 4.43C28.2109 2.34 31.3609 0.91 35.0409 0.12C35.7009 0 36.1609 -0.03 36.4009 0.03C36.6409 0.09 36.7909 0.18 36.8509 0.3C36.8509 0.84 36.6709 1.24 36.3109 1.47C34.8009 2.32 33.5309 3.37 32.5109 4.64C31.4909 5.91 30.8509 7.13 30.6109 8.31C30.3709 9.48 30.6409 10.35 31.4309 10.89C31.6709 11.07 32.2409 11.57 33.1509 12.39C34.0509 13.2 34.9009 14.26 35.6809 15.56C36.4609 16.86 36.8409 18.32 36.8109 19.95C36.7809 21.58 35.9509 23.3 34.3209 25.11L34.3109 25.1Z" fill="#233B68"/>
</g>
<defs>
<clipPath id="clip0_447_2527">
<rect width="36.85" height="27.65" fill="white"/>
</clipPath>
</defs>
</svg>
