<svg width="25" height="25" viewBox="0 0 25 25" fill="none" xmlns="http://www.w3.org/2000/svg">
<path d="M13.8978 12.1309C13.1749 12.6367 12.2964 12.9345 11.3493 12.9345C10.4017 12.9345 9.52319 12.6368 8.80029 12.1309C7.53628 12.6733 6.75947 13.628 6.28564 14.4708C5.65674 15.5891 6.14971 17.1705 7.23765 17.1705C8.32515 17.1705 11.3493 17.1705 11.3493 17.1705C11.3493 17.1705 14.3734 17.1705 15.4609 17.1705C16.5489 17.1705 17.0418 15.5891 16.4125 14.4708C15.9391 13.628 15.1623 12.6733 13.8978 12.1309Z" fill="white"/>
<path d="M11.349 11.8769C13.2062 11.8769 14.7114 10.3713 14.7114 8.5145V7.70908C14.7114 5.85186 13.2062 4.34668 11.349 4.34668C9.49175 4.34668 7.98657 5.85186 7.98657 7.70908V8.5145C7.98657 10.3713 9.49175 11.8769 11.349 11.8769Z" fill="white"/>
<path d="M24.2746 21.5785L20.5717 17.971C23.7585 13.5371 23.3618 7.30481 19.3777 3.32073C14.9505 -1.10691 7.74793 -1.10691 3.32078 3.32073C-1.10685 7.74788 -1.10685 14.9513 3.32034 19.3784C7.30536 23.3631 13.5376 23.7593 17.9724 20.5712L21.5786 24.2736C22.3425 25.1958 23.4706 25.2502 24.3424 24.378C25.2155 23.507 25.1963 22.342 24.2746 21.5785ZM4.89681 17.8016C1.33387 14.2383 1.33387 8.46062 4.89681 4.89807C8.46019 1.33469 14.2374 1.33469 17.8008 4.89807C21.3638 8.46106 21.3642 14.2383 17.8013 17.802C14.2383 21.3645 8.46019 21.3645 4.89681 17.8016Z" fill="white"/>
</svg>
