<svg width="31" height="31" viewBox="0 0 31 31" fill="none" xmlns="http://www.w3.org/2000/svg">
<g clip-path="url(#clip0_447_2536)">
<path d="M15.5 0C6.93706 0 0 6.93706 0 15.5C0 24.0629 6.93706 31 15.5 31C24.0629 31 31 24.0629 31 15.5C31 6.93706 24.0629 0 15.5 0ZM15.5181 23.5571C14.127 23.5571 13.1515 23.0332 13.1515 21.6964C13.1515 20.3596 14.127 19.8357 15.5181 19.8357C16.9091 19.8357 17.8666 20.3596 17.8666 21.6964C17.8666 23.0332 16.891 23.5571 15.5181 23.5571ZM17.2162 18.5711H13.7838L11.9592 7.44289H19.0227L17.1981 18.5711H17.2162Z" fill="#233B68"/>
</g>
<defs>
<clipPath id="clip0_447_2536">
<rect width="31" height="31" fill="white"/>
</clipPath>
</defs>
</svg>
