<svg width="24" height="24" viewBox="0 0 24 24" fill="none" xmlns="http://www.w3.org/2000/svg">
<path d="M7.72947 4.20895C8.37986 4.20895 8.90725 3.68194 8.90725 3.0308V1.17741C8.90725 0.527438 8.37986 0 7.72947 0C7.07908 0 6.55127 0.527438 6.55127 1.17741V3.03075C6.55127 3.68194 7.07908 4.20895 7.72947 4.20895Z" fill="white"/>
<path d="M16.415 4.20895C17.065 4.20895 17.5928 3.68194 17.5928 3.0308V1.17741C17.5928 0.527438 17.065 0 16.415 0C15.7646 0 15.2368 0.527438 15.2368 1.17741V3.03075C15.2368 3.68194 15.7646 4.20895 16.415 4.20895Z" fill="white"/>
<path d="M20.4962 1.67871H18.6275V3.03101C18.6275 4.25163 17.6352 5.24435 16.415 5.24435C15.1947 5.24435 14.2021 4.25163 14.2021 3.03101V1.67871H9.942V3.03101C9.942 4.25163 8.94928 5.24435 7.7295 5.24435C6.50925 5.24435 5.51653 4.25163 5.51653 3.03101V1.67871H3.504C1.67696 1.67871 0.195801 3.15991 0.195801 4.98691V20.6921C0.195801 22.5191 1.67696 24.0003 3.504 24.0003H20.4962C22.3232 24.0003 23.8044 22.5191 23.8044 20.6921V4.98691C23.8044 3.15991 22.3232 1.67871 20.4962 1.67871ZM22.1947 20.6921C22.1947 21.6285 21.4327 22.3906 20.4961 22.3906H3.504C2.56749 22.3906 1.80549 21.6285 1.80549 20.6921V7.07763H22.1947V20.6921Z" fill="white"/>
<path d="M11.1808 17.9307H8.19995V20.9115H11.1808V17.9307Z" fill="white"/>
<path d="M11.1808 13.3105H8.19995V16.2914H11.1808V13.3105Z" fill="white"/>
<path d="M6.56097 17.9307H3.58057V20.9115H6.56097V17.9307Z" fill="white"/>
<path d="M6.56097 13.3105H3.58057V16.2914H6.56097V13.3105Z" fill="white"/>
<path d="M20.4197 8.69141H17.4392V11.6718H20.4197V8.69141Z" fill="white"/>
<path d="M15.8004 8.69141H12.8196V11.6718H15.8004V8.69141Z" fill="white"/>
<path d="M16.4083 13.744L15.5217 13.0547L13.9073 15.1313L12.9488 14.3646L12.2473 15.2406L14.0944 16.7186L16.4083 13.744Z" fill="white"/>
<path d="M20.4197 13.3105H17.4392V16.2914H20.4197V13.3105Z" fill="white"/>
<path d="M15.8004 17.9307H12.8196V20.9115H15.8004V17.9307Z" fill="white"/>
<path d="M11.1808 8.69141H8.19995V11.6718H11.1808V8.69141Z" fill="white"/>
</svg>
